<svg xmlns="http://www.w3.org/2000/svg" xmlns:xlink="http://www.w3.org/1999/xlink" width="122" height="122" viewBox="0 0 122 122"><defs><style>.a{fill:#008909;}.b{fill:#fff;}.c{filter:url(#a);}</style><filter id="a" x="0" y="0" width="122" height="122" filterUnits="userSpaceOnUse"><feOffset dy="10" input="SourceAlpha"/><feGaussianBlur stdDeviation="12" result="b"/><feFlood flood-color="#ad8317" flood-opacity="0.18"/><feComposite operator="in" in2="b"/><feComposite in="SourceGraphic"/></filter></defs><g transform="translate(-1219 -140)"><g class="c" transform="matrix(1, 0, 0, 1, 1219, 140)"><circle class="a" cx="25" cy="25" r="25" transform="translate(36 26)"/></g><path class="b" d="M11.534,26.394a1.073,1.073,0,0,1-1.073,1.073H4.292A4.3,4.3,0,0,1,0,23.175V4.292A4.3,4.3,0,0,1,4.292,0H17.483a4.3,4.3,0,0,1,4.292,4.292V15.665a1.073,1.073,0,0,1-2.146,0V4.292a2.148,2.148,0,0,0-2.146-2.146H4.292A2.148,2.148,0,0,0,2.146,4.292V23.175a2.148,2.148,0,0,0,2.146,2.146h6.169a1.073,1.073,0,0,1,1.073,1.073Zm12.641-8.919a1.073,1.073,0,0,0-1.5.248L17.39,25.109a.613.613,0,0,1-.882.046l-3.424-3.287A1.073,1.073,0,1,0,11.6,23.415l3.427,3.291a2.767,2.767,0,0,0,1.9.76q.091,0,.182-.006a2.765,2.765,0,0,0,1.967-1.025l.036-.047,5.31-7.417a1.073,1.073,0,0,0-.248-1.5ZM16.41,6.438H5.359a1.073,1.073,0,0,0,0,2.146H16.41a1.073,1.073,0,0,0,0-2.146ZM17.483,11.8a1.073,1.073,0,0,0-1.073-1.073H5.359a1.073,1.073,0,1,0,0,2.146H16.41A1.073,1.073,0,0,0,17.483,11.8ZM5.359,15.021a1.073,1.073,0,0,0,0,2.146H12.07a1.073,1.073,0,0,0,0-2.146Zm0,0" transform="translate(1268 177)"/></g></svg>