<svg xmlns="http://www.w3.org/2000/svg" xmlns:xlink="http://www.w3.org/1999/xlink" width="52" height="52" viewBox="0 0 52 52"><defs><style>.a{fill:#001489;}.b{fill:#fff;}.c{filter:url(#a);}</style><filter id="a" x="0" y="0" width="52" height="52" filterUnits="userSpaceOnUse"><feOffset dy="3" input="SourceAlpha"/><feGaussianBlur stdDeviation="3" result="b"/><feFlood flood-opacity="0.161"/><feComposite operator="in" in2="b"/><feComposite in="SourceGraphic"/></filter></defs><g transform="translate(-167 -12)"><g class="c" transform="matrix(1, 0, 0, 1, 167, 12)"><circle class="a" cx="17" cy="17" r="17" transform="translate(9 6)"/></g><g transform="translate(187 30)"><path class="b" d="M12.406,176.747H.539a.539.539,0,1,1,0-1.079H12.406a.539.539,0,1,1,0,1.079Z" transform="translate(0 -171.533)"/><path class="b" d="M12.406,54.079H.539A.539.539,0,0,1,.539,53H12.406a.539.539,0,0,1,0,1.079Z" transform="translate(0 -53)"/><path class="b" d="M12.406,299.411H.539a.539.539,0,0,1,0-1.079H12.406a.539.539,0,0,1,0,1.079Z" transform="translate(0 -290.062)"/></g></g></svg>