<svg xmlns="http://www.w3.org/2000/svg" width="14" height="13.307" viewBox="0 0 14 13.307"><defs><style>.a{fill:#001489;}</style></defs><g transform="translate(0 -12.675)"><g transform="translate(0 12.675)"><g transform="translate(0 0)"><path class="a" d="M13.765,18.587,7.483,12.864a.715.715,0,0,0-.967,0L.235,18.587a.718.718,0,0,0,.484,1.249h1V25.57a.412.412,0,0,0,.412.412H5.577a.412.412,0,0,0,.412-.412V22.089H8.012v3.482a.412.412,0,0,0,.412.412h3.443a.412.412,0,0,0,.412-.412V19.836h1a.718.718,0,0,0,.483-1.249Z" transform="translate(0 -12.675)"/></g></g><g transform="translate(9.405 13.497)"><g transform="translate(0 0)"><path class="a" d="M346.738,42.73h-2.765l3.177,2.888V43.142A.412.412,0,0,0,346.738,42.73Z" transform="translate(-343.973 -42.73)"/></g></g></g></svg>