<svg xmlns="http://www.w3.org/2000/svg" width="14.793" height="13.561" viewBox="0 0 14.793 13.561"><defs><style>.a{fill:#fff;}</style></defs><g transform="translate(0 0)"><path class="a" d="M3.852,154.889a2.308,2.308,0,0,1-2.183-1.572l-.022-.071a2.25,2.25,0,0,1-.107-.668v-4.2l-1.5,4.992a1.4,1.4,0,0,0,.981,1.7l9.531,2.553a1.413,1.413,0,0,0,.355.046,1.374,1.374,0,0,0,1.332-1.008l.555-1.766Zm0,0" transform="translate(0 -144.102)"/><path class="a" d="M150.553,66.958a1.233,1.233,0,1,0-1.233-1.233A1.234,1.234,0,0,0,150.553,66.958Zm0,0" transform="translate(-145.006 -62.643)"/><path class="a" d="M96.107.492H86.861A1.543,1.543,0,0,0,85.32,2.033v6.78a1.543,1.543,0,0,0,1.541,1.541h9.246a1.543,1.543,0,0,0,1.541-1.541V2.033A1.543,1.543,0,0,0,96.107.492ZM86.861,1.725h9.246a.308.308,0,0,1,.308.308V6.409L94.468,4.137a1.1,1.1,0,0,0-.827-.379,1.077,1.077,0,0,0-.823.389L90.529,6.895l-.746-.744a1.082,1.082,0,0,0-1.529,0l-1.7,1.7V2.033A.308.308,0,0,1,86.861,1.725Zm0,0" transform="translate(-82.855 -0.492)"/></g></svg>