<svg xmlns="http://www.w3.org/2000/svg" width="16.307" height="17.06" viewBox="0 0 16.307 17.06"><defs><style>.a{fill:#001489;}</style></defs><g transform="translate(-11.328)"><g transform="translate(11.328 8.552)"><g transform="translate(0)"><path class="a" d="M19.481,257.323a8.163,8.163,0,0,0-8.153,8.153.355.355,0,1,0,.709,0,7.444,7.444,0,0,1,14.889,0,.355.355,0,1,0,.709,0A8.162,8.162,0,0,0,19.481,257.323Z" transform="translate(-11.328 -257.323)"/></g></g><g transform="translate(15.582)"><g transform="translate(0)"><path class="a" d="M143.227,0a3.9,3.9,0,1,0,3.9,3.9A3.9,3.9,0,0,0,143.227,0Zm0,7.09a3.19,3.19,0,1,1,3.19-3.19A3.194,3.194,0,0,1,143.227,7.09Z" transform="translate(-139.328)"/></g></g></g></svg>