<svg xmlns="http://www.w3.org/2000/svg" width="17.001" height="17.805" viewBox="0 0 17.001 17.805"><defs><style>.a{fill:#001489;}</style></defs><path class="a" d="M0,8.5A8.314,8.314,0,0,1,8.124,0,8.066,8.066,0,0,1,15.16,4.25.56.56,0,0,1,14.97,5a.509.509,0,0,1-.713-.2,7.03,7.03,0,0,0-6.133-3.7A7.258,7.258,0,0,0,1.043,8.5a7.258,7.258,0,0,0,7.08,7.409,7.03,7.03,0,0,0,6.133-3.7.509.509,0,0,1,.713-.2.56.56,0,0,1,.19.746A8.066,8.066,0,0,1,8.124,17,8.314,8.314,0,0,1,0,8.5ZM14.857,9.906v-.86H5.71a.546.546,0,0,1,0-1.092h9.147V7.1a.521.521,0,0,1,.822-.446l1.905,1.405a.562.562,0,0,1,0,.892l-1.905,1.405a.5.5,0,0,1-.3.1A.534.534,0,0,1,14.857,9.906Z" transform="translate(0 17.805) rotate(-90)"/></svg>