<svg xmlns="http://www.w3.org/2000/svg" width="13.257" height="17.068" viewBox="0 0 13.257 17.068"><defs><style>.a{fill:#001489;}</style></defs><g transform="translate(-57.164)"><g transform="translate(57.164 0)"><path class="a" d="M70.171,14.567a.25.25,0,0,0,.25-.25V9.348A1.327,1.327,0,0,0,69.3,8.039V5.509a5.509,5.509,0,0,0-11.019,0V7.1a.25.25,0,1,0,.5,0V5.509a5.009,5.009,0,0,1,10.019,0V8.023H67.723V5.509a3.931,3.931,0,0,0-7.862,0V8.023H58.489a1.326,1.326,0,0,0-1.325,1.325v6.4a1.326,1.326,0,0,0,1.325,1.325H69.1a1.326,1.326,0,0,0,1.325-1.325v-.258a.25.25,0,1,0-.5,0v.258a.826.826,0,0,1-.825.825H58.489a.826.826,0,0,1-.825-.825v-6.4a.826.826,0,0,1,.825-.825H69.1a.826.826,0,0,1,.825.825v4.97A.25.25,0,0,0,70.171,14.567ZM67.223,8.023H60.362V5.509a3.431,3.431,0,0,1,6.862,0V8.023Z" transform="translate(-57.164 0)"/><path class="a" d="M154.974,278.674a3.368,3.368,0,1,0,3.368-3.368A3.372,3.372,0,0,0,154.974,278.674Zm6.236,0a2.868,2.868,0,1,1-2.868-2.868A2.871,2.871,0,0,1,161.21,278.674Z" transform="translate(-151.713 -266.128)"/><path class="a" d="M221.859,320.341a1.175,1.175,0,0,0-.765,1.993l-.223,1.167a.481.481,0,0,0,.473.572h1.181A.481.481,0,0,0,223,323.5l-.222-1.166a1.175,1.175,0,0,0-.916-1.993Zm.751,1.172a.671.671,0,0,1-.26.532.25.25,0,0,0-.092.244l.245,1.282h-1.136l.245-1.282a.25.25,0,0,0-.092-.244.675.675,0,1,1,1.09-.532Z" transform="translate(-215.306 -309.66)"/></g></g></svg>