<svg xmlns="http://www.w3.org/2000/svg" xmlns:xlink="http://www.w3.org/1999/xlink" width="122" height="122" viewBox="0 0 122 122"><defs><style>.a{fill:red;}.b{fill:#fff;}.c{filter:url(#a);}</style><filter id="a" x="0" y="0" width="122" height="122" filterUnits="userSpaceOnUse"><feOffset dy="10" input="SourceAlpha"/><feGaussianBlur stdDeviation="12" result="b"/><feFlood flood-color="#ad8317" flood-opacity="0.18"/><feComposite operator="in" in2="b"/><feComposite in="SourceGraphic"/></filter></defs><g transform="translate(-1219 -140)"><g class="c" transform="matrix(1, 0, 0, 1, 1219, 140)"><circle class="a" cx="25" cy="25" r="25" transform="translate(36 26)"/></g><g transform="translate(1220.8 178)"><path class="b" d="M69.13,6.766,62.588.224A.763.763,0,0,0,62.048,0H51.008A2.811,2.811,0,0,0,48.2,2.808V23.252a2.811,2.811,0,0,0,2.808,2.808H66.545a2.811,2.811,0,0,0,2.808-2.808V7.306a.764.764,0,0,0-.224-.54ZM62.811,2.607l3.935,3.935H64.092a1.282,1.282,0,0,1-1.281-1.281Zm3.734,21.926H51.008a1.282,1.282,0,0,1-1.281-1.281V2.808a1.282,1.282,0,0,1,1.281-1.281H61.284V5.261a2.811,2.811,0,0,0,2.808,2.808h3.734V23.252A1.282,1.282,0,0,1,66.545,24.533Z"/><path class="b" d="M135.021,192.8a6.488,6.488,0,1,0,6.488,6.488A6.5,6.5,0,0,0,135.021,192.8Zm0,11.449a4.961,4.961,0,1,1,4.961-4.961A4.966,4.966,0,0,1,135.021,204.249Z" transform="translate(-76.244 -182.987)"/><path class="b" d="M211.689,271.408a.763.763,0,0,0-1.08,0l-1.195,1.195-1.195-1.195a.763.763,0,1,0-1.08,1.08l1.195,1.195-1.195,1.195a.763.763,0,0,0,1.08,1.08l1.195-1.195,1.195,1.195a.763.763,0,0,0,1.08-1.08l-1.195-1.195,1.195-1.195A.763.763,0,0,0,211.689,271.408Z" transform="translate(-150.638 -257.382)"/></g></g></svg>