<svg xmlns="http://www.w3.org/2000/svg" xmlns:xlink="http://www.w3.org/1999/xlink" width="122" height="122" viewBox="0 0 122 122"><defs><style>.a{fill:#001489;}.b{fill:#fff;}.c{filter:url(#a);}</style><filter id="a" x="0" y="0" width="122" height="122" filterUnits="userSpaceOnUse"><feOffset dy="10" input="SourceAlpha"/><feGaussianBlur stdDeviation="12" result="b"/><feFlood flood-color="#ad8317" flood-opacity="0.18"/><feComposite operator="in" in2="b"/><feComposite in="SourceGraphic"/></filter></defs><g transform="translate(-1219 -140)"><g class="c" transform="matrix(1, 0, 0, 1, 1219, 140)"><circle class="a" cx="25" cy="25" r="25" transform="translate(36 26)"/></g><g transform="translate(1208.975 178.28)"><path class="b" d="M80.627,6.331,74.519.224A.769.769,0,0,0,73.979,0H63.29A2.293,2.293,0,0,0,61,2.29V23.769a2.293,2.293,0,0,0,2.29,2.29H78.56a2.293,2.293,0,0,0,2.29-2.29V6.871A.771.771,0,0,0,80.627,6.331ZM74.742,2.607l3.5,3.5H75.506a.764.764,0,0,1-.763-.763ZM78.56,24.533H63.29a.764.764,0,0,1-.763-.763V2.29a.764.764,0,0,1,.763-.763h9.925V5.344a2.293,2.293,0,0,0,2.29,2.29h3.817V23.769A.764.764,0,0,1,78.56,24.533Z"/><path class="b" d="M189.4,242h-7.635a.763.763,0,0,0,0,1.527H189.4a.763.763,0,0,0,0-1.527Z" transform="translate(-113.892 -229.683)"/><path class="b" d="M189.4,302h-7.635a.763.763,0,1,0,0,1.527H189.4a.763.763,0,1,0,0-1.527Z" transform="translate(-113.892 -286.629)"/><path class="b" d="M189.4,362h-7.635a.763.763,0,1,0,0,1.527H189.4a.763.763,0,1,0,0-1.527Z" transform="translate(-113.892 -343.575)"/><circle class="b" cx="0.911" cy="0.911" r="0.911" transform="translate(63.641 12.119)"/><circle class="b" cx="0.911" cy="0.911" r="0.911" transform="translate(63.641 14.851)"/><circle class="b" cx="0.911" cy="0.911" r="0.911" transform="translate(63.641 18.493)"/></g></g></svg>