<svg xmlns="http://www.w3.org/2000/svg" width="32.051" height="16.754" viewBox="0 0 32.051 16.754"><defs><style>.a{fill:#001489;}.b{fill:#2c2c2c;}</style></defs><g transform="translate(0)"><path class="a" d="M231.917,42.926a4.815,4.815,0,1,0,4.815,4.815A4.815,4.815,0,0,0,231.917,42.926Zm0,0" transform="translate(-208.248 -39.364)"/><path class="b" d="M23.671.023H8.378a8.377,8.377,0,0,0,0,16.754h15.3A8.377,8.377,0,0,0,23.671.022Zm0,14.355A5.978,5.978,0,1,1,29.648,8.4,5.977,5.977,0,0,1,23.671,14.377Zm0,0" transform="translate(-0.001 -0.022)"/></g></svg>