<svg xmlns="http://www.w3.org/2000/svg" width="11.314" height="13.561" viewBox="0 0 11.314 13.561"><defs><style>.a{fill:#fff;}</style></defs><g transform="translate(0 0)"><path class="a" d="M90.3,6.532a3.16,3.16,0,0,0,2.309-.957,3.16,3.16,0,0,0,.957-2.309A3.161,3.161,0,0,0,92.607.957a3.265,3.265,0,0,0-4.619,0,3.16,3.16,0,0,0-.957,2.309,3.16,3.16,0,0,0,.957,2.309A3.161,3.161,0,0,0,90.3,6.532Zm0,0" transform="translate(-84.727 0)"/><path class="a" d="M11.286,251.193a8.068,8.068,0,0,0-.11-.857,6.751,6.751,0,0,0-.211-.861,4.255,4.255,0,0,0-.354-.8,3.032,3.032,0,0,0-.534-.7,2.354,2.354,0,0,0-.767-.482,2.651,2.651,0,0,0-.979-.177.994.994,0,0,0-.531.225c-.159.1-.345.224-.553.357a3.168,3.168,0,0,1-.716.315,2.779,2.779,0,0,1-1.75,0,3.163,3.163,0,0,1-.715-.315c-.206-.132-.392-.252-.554-.357a.993.993,0,0,0-.531-.225,2.648,2.648,0,0,0-.979.177,2.353,2.353,0,0,0-.767.482,3.032,3.032,0,0,0-.534.7,4.264,4.264,0,0,0-.354.8,6.767,6.767,0,0,0-.211.861,8.04,8.04,0,0,0-.11.857c-.018.259-.027.529-.027.8a2.252,2.252,0,0,0,.669,1.7,2.407,2.407,0,0,0,1.723.629H8.921a2.407,2.407,0,0,0,1.723-.629,2.251,2.251,0,0,0,.669-1.7c0-.273-.009-.543-.027-.8Zm0,0" transform="translate(0 -240.766)"/></g></svg>