<svg xmlns="http://www.w3.org/2000/svg" width="9.831" height="12.637" viewBox="0 0 9.831 12.637"><defs><style>.a{fill:#fff;}</style></defs><g transform="translate(0)"><path class="a" d="M126.228.763h2.112v.355h.763V.713A.714.714,0,0,0,128.39,0h-2.212a.714.714,0,0,0-.713.713v.405h.763Zm0,0" transform="translate(-122.368 0)"/><path class="a" d="M47.987,167.75h-7.16a.336.336,0,0,0-.335.363l.6,7.4a.8.8,0,0,0,.792.731h5.048a.8.8,0,0,0,.792-.732l.6-7.4a.336.336,0,0,0-.335-.363Zm-5.427,7.707h-.024a.381.381,0,0,1-.38-.358l-.375-6.077a.381.381,0,1,1,.761-.047l.375,6.077A.381.381,0,0,1,42.56,175.457Zm2.232-.381a.381.381,0,0,1-.763,0V169a.381.381,0,0,1,.763,0Zm2.24-6.054-.358,6.077a.381.381,0,0,1-.38.359h-.023a.381.381,0,0,1-.358-.4l.358-6.077a.381.381,0,0,1,.761.045Zm0,0" transform="translate(-39.491 -163.61)"/><path class="a" d="M9.815,77.294l-.25-.751a.485.485,0,0,0-.46-.331H.727a.485.485,0,0,0-.46.331l-.25.751a.315.315,0,0,0,.3.414h9.2a.31.31,0,0,0,.167-.048.314.314,0,0,0,.132-.366Zm0,0" transform="translate(0 -74.33)"/></g></svg>